# xmcd
#
# Track frame offsets: 
#        150
#        23290
#        59830
#        87086
#        114666
#        142019
#        168809
#        200206
#        236918
#        288800
#
# Disc length: 4317 seconds
#
# Revision: 2
# Processed by: cddbd v1.5.2PL0 Copyright (c) Steve Scherf et al.
# Submitted via: ExactAudioCopy v0.99pb5
#
DISCID=8c10db0a
DTITLE=Efdemin - Efdemin
DYEAR=2007
DGENRE=Electronic
TTITLE0=Knocking at the Grand
TTITLE1=Lohn and Brot
TTITLE2=Le ratafia
TTITLE3=Acid Bells (Album Version)
TTITLE4=Back to School
TTITLE5=Stately, Yes.
TTITLE6=Further Back
TTITLE7=Salix Alba
TTITLE8=April Fools
TTITLE9=Bergwein
EXTD=YEAR: 2007
EXTT0=
EXTT1=
EXTT2=
EXTT3=
EXTT4=
EXTT5=
EXTT6=
EXTT7=
EXTT8=
EXTT9=
PLAYORDER=
